<svg xmlns="http://www.w3.org/2000/svg" width="430" height="64" viewBox="0 0 107.52 16"><title>WaitWise</title><path d="M8 16A8 8 0 1 1 14.928 12H11A5 5 0 1 0 8 13Z" fill="#252525"/><path d="M9 13h8a1 1 0 0 1 1 1v1a1 1 0 0 1-1 1H9Z" fill="#0cb7d6"/><path transform="translate(22.8 13.64)" d="M8.99 1.92L7.55 -0.02Q6.91 0.11 6.3 0.11Q4.72 0.11 3.4 -0.62Q2.08 -1.36 1.3 -2.68Q0.53 -4 0.53 -5.65Q0.53 -7.3 1.3 -8.61Q2.08 -9.92 3.4 -10.66Q4.72 -11.39 6.3 -11.39Q7.89 -11.39 9.21 -10.66Q10.53 -9.92 11.29 -8.61Q12.05 -7.3 12.05 -5.65Q12.05 -4.21 11.46 -3.02Q10.88 -1.82 9.84 -1.04L12.3 1.92L8.99 1.92ZM6.3 -2.38Q7.65 -2.38 8.46 -3.28Q9.26 -4.18 9.26 -5.65Q9.26 -7.14 8.46 -8.02Q7.65 -8.91 6.3 -8.91Q4.94 -8.91 4.14 -8.03Q3.33 -7.15 3.33 -5.65Q3.33 -4.16 4.14 -3.27Q4.94 -2.38 6.3 -2.38ZM22.26 -8.93L22.26 0L19.52 0L19.52 -1.22Q19.1 -0.62 18.39 -0.26Q17.68 0.1 16.82 0.1Q15.79 0.1 15.01 -0.36Q14.22 -0.82 13.79 -1.68Q13.36 -2.54 13.36 -3.71L13.36 -8.93L16.08 -8.93L16.08 -4.08Q16.08 -3.18 16.54 -2.69Q17.01 -2.19 17.79 -2.19Q18.59 -2.19 19.06 -2.69Q19.52 -3.18 19.52 -4.08L19.52 -8.93L22.26 -8.93ZM32.43 -3.81L26.24 -3.81Q26.3 -2.98 26.78 -2.54Q27.25 -2.1 27.94 -2.1Q28.96 -2.1 29.36 -2.96L32.27 -2.96Q32.05 -2.08 31.46 -1.38Q30.88 -0.67 30 -0.27Q29.12 0.13 28.03 0.13Q26.72 0.13 25.7 -0.43Q24.67 -0.99 24.1 -2.03Q23.52 -3.07 23.52 -4.46Q23.52 -5.86 24.09 -6.9Q24.66 -7.94 25.68 -8.5Q26.7 -9.06 28.03 -9.06Q29.33 -9.06 30.34 -8.51Q31.34 -7.97 31.91 -6.96Q32.48 -5.95 32.48 -4.61Q32.48 -4.22 32.43 -3.81ZM29.68 -5.33Q29.68 -6.03 29.2 -6.45Q28.72 -6.86 28 -6.86Q27.31 -6.86 26.84 -6.46Q26.37 -6.06 26.26 -5.33L29.68 -5.33ZM42.58 -8.93L42.58 0L39.84 0L39.84 -1.22Q39.42 -0.62 38.71 -0.26Q38 0.1 37.14 0.1Q36.11 0.1 35.33 -0.36Q34.54 -0.82 34.11 -1.68Q33.68 -2.54 33.68 -3.71L33.68 -8.93L36.4 -8.93L36.4 -4.08Q36.4 -3.18 36.86 -2.69Q37.33 -2.19 38.11 -2.19Q38.91 -2.19 39.38 -2.69Q39.84 -3.18 39.84 -4.08L39.84 -8.93L42.58 -8.93ZM52.75 -3.81L46.56 -3.81Q46.62 -2.98 47.1 -2.54Q47.57 -2.1 48.26 -2.1Q49.28 -2.1 49.68 -2.96L52.59 -2.96Q52.37 -2.08 51.78 -1.38Q51.2 -0.67 50.32 -0.27Q49.44 0.13 48.35 0.13Q47.04 0.13 46.02 -0.43Q44.99 -0.99 44.42 -2.03Q43.84 -3.07 43.84 -4.46Q43.84 -5.86 44.41 -6.9Q44.98 -7.94 46 -8.5Q47.02 -9.06 48.35 -9.06Q49.65 -9.06 50.66 -8.51Q51.66 -7.97 52.23 -6.96Q52.8 -5.95 52.8 -4.61Q52.8 -4.22 52.75 -3.81ZM50 -5.33Q50 -6.03 49.52 -6.45Q49.04 -6.86 48.32 -6.86Q47.63 -6.86 47.16 -6.46Q46.69 -6.06 46.58 -5.33L50 -5.33ZM56.82 -11.84L56.82 0L54.08 0L54.08 -11.84L56.82 -11.84ZM67.01 -3.81L60.82 -3.81Q60.88 -2.98 61.35 -2.54Q61.82 -2.1 62.51 -2.1Q63.54 -2.1 63.94 -2.96L66.85 -2.96Q66.62 -2.08 66.04 -1.38Q65.46 -0.67 64.58 -0.27Q63.7 0.13 62.61 0.13Q61.3 0.13 60.27 -0.43Q59.25 -0.99 58.67 -2.03Q58.1 -3.07 58.1 -4.46Q58.1 -5.86 58.66 -6.9Q59.23 -7.94 60.26 -8.5Q61.28 -9.06 62.61 -9.06Q63.9 -9.06 64.91 -8.51Q65.92 -7.97 66.49 -6.96Q67.06 -5.95 67.06 -4.61Q67.06 -4.22 67.01 -3.81ZM64.26 -5.33Q64.26 -6.03 63.78 -6.45Q63.3 -6.86 62.58 -6.86Q61.89 -6.86 61.42 -6.46Q60.94 -6.06 60.83 -5.33L64.26 -5.33ZM67.86 -2.93L70.56 -2.93Q70.61 -2.46 70.99 -2.18Q71.38 -1.89 71.94 -1.89Q72.45 -1.89 72.73 -2.09Q73.01 -2.29 73.01 -2.61Q73.01 -2.99 72.61 -3.18Q72.21 -3.36 71.31 -3.58Q70.35 -3.81 69.71 -4.06Q69.07 -4.3 68.61 -4.84Q68.14 -5.38 68.14 -6.29Q68.14 -7.06 68.57 -7.69Q68.99 -8.32 69.82 -8.69Q70.64 -9.06 71.78 -9.06Q73.46 -9.06 74.42 -8.22Q75.39 -7.39 75.54 -6.02L73.01 -6.02Q72.94 -6.48 72.6 -6.75Q72.26 -7.02 71.7 -7.02Q71.22 -7.02 70.96 -6.84Q70.7 -6.66 70.7 -6.34Q70.7 -5.95 71.11 -5.76Q71.52 -5.57 72.38 -5.38Q73.38 -5.12 74 -4.87Q74.62 -4.62 75.1 -4.07Q75.57 -3.52 75.58 -2.59Q75.58 -1.81 75.14 -1.19Q74.7 -0.58 73.88 -0.22Q73.06 0.13 71.97 0.13Q70.8 0.13 69.89 -0.27Q68.98 -0.67 68.45 -1.37Q67.92 -2.06 67.86 -2.93ZM76.62 -2.93L79.33 -2.93Q79.38 -2.46 79.76 -2.18Q80.14 -1.89 80.7 -1.89Q81.22 -1.89 81.5 -2.09Q81.78 -2.29 81.78 -2.61Q81.78 -2.99 81.38 -3.18Q80.98 -3.36 80.08 -3.58Q79.12 -3.81 78.48 -4.06Q77.84 -4.3 77.38 -4.84Q76.91 -5.38 76.91 -6.29Q76.91 -7.06 77.34 -7.69Q77.76 -8.32 78.58 -8.69Q79.41 -9.06 80.54 -9.06Q82.22 -9.06 83.19 -8.22Q84.16 -7.39 84.3 -6.02L81.78 -6.02Q81.71 -6.48 81.37 -6.75Q81.02 -7.02 80.46 -7.02Q79.98 -7.02 79.73 -6.84Q79.47 -6.66 79.47 -6.34Q79.47 -5.95 79.88 -5.76Q80.29 -5.57 81.15 -5.38Q82.14 -5.12 82.77 -4.87Q83.39 -4.62 83.86 -4.07Q84.34 -3.52 84.35 -2.59Q84.35 -1.81 83.91 -1.19Q83.47 -0.58 82.65 -0.22Q81.82 0.13 80.74 0.13Q79.57 0.13 78.66 -0.27Q77.74 -0.67 77.22 -1.37Q76.69 -2.06 76.62 -2.93Z" fill="#252525"/></svg>
